<svg width="32" height="30" viewBox="0 0 32 30" fill="none" xmlns="http://www.w3.org/2000/svg">
<path opacity="0.66" d="M20.157 11.8H18.237V13.72H20.157V11.8ZM14.397 23.32H12.477V25.24H14.397V23.32ZM8.63703 11.8H6.71703V13.72H8.63703V11.8ZM14.397 11.8H12.477V13.72H14.397V11.8ZM20.157 15.64H18.237V17.56H20.157V15.64ZM25.917 15.64H23.997V17.56H25.917V15.64ZM8.63703 15.64H6.71703V17.56H8.63703V15.64ZM14.397 15.64H12.477V17.56H14.397V15.64ZM20.157 19.48H18.237V21.4H20.157V19.48ZM25.917 19.48H23.997V21.4H25.917V19.48ZM8.63703 19.48H6.71703V21.4H8.63703V19.48ZM14.397 19.48H12.477V21.4H14.397V19.48ZM20.157 23.32H18.237V25.24H20.157V23.32ZM25.917 23.32H23.997V25.24H25.917V23.32ZM0.957031 2.2V29.08H31.677V2.2H25.917V0.279999H23.997V2.2H8.63703V0.279999H6.71703V2.2H0.957031ZM29.757 4.12V7.96H2.87703V4.12H6.71703V6.04H8.63703V4.12H23.997V6.04H25.917V4.12H29.757ZM2.87703 27.16V9.88H29.757V27.16H2.87703Z" fill="#464641"/>
</svg>
