<svg width="30" height="30" viewBox="0 0 30 30" fill="none" xmlns="http://www.w3.org/2000/svg">
<path opacity="0.66" d="M30 23.042V30H22.5V26.25H18.75V22.5H15V19.4678C14.2773 19.8486 13.5205 20.1367 12.7295 20.332C11.9385 20.5273 11.1328 20.625 10.3125 20.625C9.36523 20.625 8.45215 20.5029 7.57324 20.2588C6.69434 20.0146 5.87402 19.668 5.1123 19.2188C4.35059 18.7695 3.65234 18.2324 3.01758 17.6074C2.39258 16.9727 1.85547 16.2744 1.40625 15.5127C0.957031 14.751 0.610352 13.9307 0.366211 13.0518C0.12207 12.1729 0 11.2598 0 10.3125C0 9.36523 0.12207 8.45215 0.366211 7.57324C0.610352 6.69434 0.957031 5.87402 1.40625 5.1123C1.85547 4.35059 2.39258 3.65723 3.01758 3.03223C3.65234 2.39746 4.35059 1.85547 5.1123 1.40625C5.87402 0.957031 6.69434 0.610352 7.57324 0.366211C8.45215 0.12207 9.36523 0 10.3125 0C11.2598 0 12.1729 0.12207 13.0518 0.366211C13.9307 0.610352 14.751 0.957031 15.5127 1.40625C16.2744 1.85547 16.9678 2.39746 17.5928 3.03223C18.2275 3.65723 18.7695 4.35059 19.2188 5.1123C19.668 5.87402 20.0146 6.69434 20.2588 7.57324C20.5029 8.45215 20.625 9.36523 20.625 10.3125C20.625 10.8105 20.5859 11.3037 20.5078 11.792C20.4297 12.2803 20.3174 12.7588 20.1709 13.2275L30 23.042ZM28.125 23.833L18.0176 13.7256C18.2324 13.1689 18.4082 12.6123 18.5449 12.0557C18.6816 11.4893 18.75 10.9082 18.75 10.3125C18.75 9.15039 18.5254 8.05664 18.0762 7.03125C17.6367 6.00586 17.0361 5.1123 16.2744 4.35059C15.5127 3.58887 14.6191 2.98828 13.5938 2.54883C12.5684 2.09961 11.4746 1.875 10.3125 1.875C9.15039 1.875 8.05664 2.09961 7.03125 2.54883C6.00586 2.98828 5.1123 3.58887 4.35059 4.35059C3.58887 5.1123 2.9834 6.00586 2.53418 7.03125C2.09473 8.05664 1.875 9.15039 1.875 10.3125C1.875 11.4746 2.09473 12.5684 2.53418 13.5938C2.9834 14.6191 3.58887 15.5127 4.35059 16.2744C5.1123 17.0361 6.00586 17.6416 7.03125 18.0908C8.05664 18.5303 9.15039 18.75 10.3125 18.75C11.2598 18.75 12.1875 18.5889 13.0957 18.2666C14.0137 17.9443 14.8389 17.4805 15.5713 16.875H16.875V20.625H20.625V24.375H24.375V28.125H28.125V23.833ZM7.5 5.625C7.76367 5.625 8.00781 5.67383 8.23242 5.77148C8.45703 5.86914 8.65234 6.00586 8.81836 6.18164C8.99414 6.34766 9.13086 6.54297 9.22852 6.76758C9.32617 6.99219 9.375 7.23633 9.375 7.5C9.375 7.76367 9.32617 8.00781 9.22852 8.23242C9.13086 8.45703 8.99414 8.65723 8.81836 8.83301C8.65234 8.99902 8.45703 9.13086 8.23242 9.22852C8.00781 9.32617 7.76367 9.375 7.5 9.375C7.23633 9.375 6.99219 9.32617 6.76758 9.22852C6.54297 9.13086 6.34277 8.99902 6.16699 8.83301C6.00098 8.65723 5.86914 8.45703 5.77148 8.23242C5.67383 8.00781 5.625 7.76367 5.625 7.5C5.625 7.23633 5.67383 6.99219 5.77148 6.76758C5.86914 6.54297 6.00098 6.34766 6.16699 6.18164C6.34277 6.00586 6.54297 5.86914 6.76758 5.77148C6.99219 5.67383 7.23633 5.625 7.5 5.625Z" fill="#464641"/>
</svg>
