<svg width="28" height="30" viewBox="0 0 28 30" fill="none" xmlns="http://www.w3.org/2000/svg">
<g clip-path="url(#clip0)">
<path opacity="0.66" d="M23.5556 10.8444C24.2222 11.2 24.8444 11.6 25.3778 12.1333C25.9111 12.6222 26.4 13.2 26.7556 13.8222C27.1556 14.4444 27.4222 15.1111 27.6444 15.8222C27.8667 16.5333 27.9556 17.2889 27.9556 18.0444H25.9556C25.9556 17.2 25.7778 16.4444 25.4667 15.7333C25.1556 15.0222 24.7111 14.3556 24.1778 13.8222C23.6444 13.2889 23.0222 12.8444 22.2667 12.5333C21.6 12.1778 20.8444 12 20 12C19.1556 12 18.4 12.1778 17.6889 12.4889C16.9778 12.8 16.3111 13.2444 15.7778 13.7778C15.2444 14.3111 14.8 14.9333 14.4889 15.6889C14.1778 16.4 14 17.2 14 18C14 18.9333 13.7778 19.8667 13.3333 20.7111C12.8889 21.5556 12.3111 22.2667 11.5556 22.8444C12.2222 23.2 12.8444 23.6 13.3778 24.1333C13.9111 24.6222 14.4 25.2 14.7556 25.8222C15.1111 26.4444 15.4222 27.1111 15.6444 27.8222C15.8667 28.5333 15.9556 29.2889 15.9556 30.0444H13.9556C13.9556 29.2 13.7778 28.4444 13.4667 27.7333C13.1556 27.0222 12.7111 26.3556 12.1778 25.8222C11.6444 25.2889 11.0222 24.8444 10.2667 24.5333C9.6 24.1778 8.84444 24 8 24C7.15556 24 6.4 24.1778 5.68889 24.4889C4.97778 24.8 4.31111 25.2444 3.77778 25.7778C3.24444 26.3111 2.8 26.9333 2.48889 27.6889C2.17778 28.4 2 29.2 2 30H0C0 29.2444 0.0888889 28.4889 0.311111 27.7778C0.533333 27.0667 0.8 26.4 1.2 25.7778C1.6 25.1556 2.04444 24.5778 2.57778 24.0889C3.11111 23.6 3.73333 23.1556 4.4 22.8C3.64444 22.2222 3.02222 21.5111 2.62222 20.6667C2.17778 19.8222 1.95556 18.9333 1.95556 17.9556C1.95556 17.1111 2.13333 16.3556 2.44444 15.6444C2.75556 14.9333 3.2 14.2667 3.73333 13.7333C4.26667 13.2 4.88889 12.7556 5.64444 12.4444C6.35556 12.1333 7.15556 11.9556 7.95556 11.9556C8.88889 11.9556 9.82222 12.1778 10.6667 12.6222C11.5111 13.0667 12.2222 13.6444 12.8 14.4C13.2 13.6 13.6889 12.9333 14.3111 12.3111C14.9333 11.6889 15.6444 11.2 16.4 10.8C15.6444 10.2222 15.0222 9.51111 14.6222 8.66667C14.1778 7.82222 13.9556 6.93333 13.9556 5.95556C13.9556 5.11111 14.1333 4.35556 14.4444 3.64444C14.7556 2.93333 15.2 2.26667 15.7333 1.73333C16.2667 1.2 16.8889 0.755556 17.6444 0.444444C18.4 0.177778 19.1556 0 20 0C20.8444 0 21.6 0.177778 22.3111 0.488889C23.0222 0.8 23.6889 1.24444 24.2222 1.77778C24.7556 2.31111 25.2 2.93333 25.5111 3.68889C25.8222 4.4 26 5.2 26 6C26 6.93333 25.7778 7.86667 25.3333 8.71111C24.9333 9.55556 24.3111 10.2667 23.5556 10.8444ZM8 22C8.53333 22 9.06667 21.9111 9.55556 21.6889C10.0444 21.4667 10.4889 21.2 10.8444 20.8444C11.2 20.4889 11.5111 20.0444 11.6889 19.6C11.8667 19.1556 12 18.5778 12 18.0444C12 17.5111 11.9111 16.9778 11.6889 16.4889C11.4667 16 11.2 15.5556 10.8444 15.2C10.4889 14.8444 10.0444 14.5333 9.55556 14.3556C9.06667 14.1333 8.53333 14.0444 8 14.0444C7.46667 14.0444 6.93333 14.1333 6.44444 14.3556C5.95556 14.5778 5.55556 14.8444 5.2 15.2C4.84444 15.5556 4.53333 16 4.35556 16.4889C4.08889 16.9333 4 17.4667 4 18C4 18.5333 4.08889 19.0667 4.31111 19.5556C4.53333 20.0444 4.8 20.4444 5.15556 20.8C5.51111 21.1556 5.95556 21.4667 6.4 21.6444C6.93333 21.9111 7.46667 22 8 22ZM16 6C16 6.53333 16.0889 7.06667 16.3111 7.55556C16.5333 8.04444 16.8 8.44444 17.1556 8.8C17.5111 9.15556 17.9556 9.46667 18.4 9.64444C18.8889 9.86667 19.4222 9.95556 19.9556 9.95556C20.4889 9.95556 21.0222 9.86667 21.5111 9.64444C22 9.42222 22.4444 9.15556 22.8 8.8C23.1556 8.44444 23.4667 8 23.6444 7.55556C23.8222 7.11111 23.9556 6.53333 23.9556 6C23.9556 5.46667 23.8667 4.93333 23.6444 4.44444C23.4222 3.95556 23.1556 3.51111 22.8 3.15556C22.4444 2.8 22 2.48889 21.5111 2.31111C21.0222 2.08889 20.4889 2 19.9556 2C19.4222 2 18.8889 2.08889 18.4 2.31111C17.9111 2.53333 17.5111 2.8 17.1556 3.15556C16.8 3.51111 16.4889 3.95556 16.3111 4.44444C16.0889 4.93333 16 5.46667 16 6Z" fill="#464641"/>
</g>
<defs>
<clipPath id="clip0">
<rect width="28" height="30" fill="white"/>
</clipPath>
</defs>
</svg>
