<svg width="32" height="26" viewBox="0 0 32 26" fill="none" xmlns="http://www.w3.org/2000/svg">
<g opacity="0.6">
<path d="M0 0H32V26H0V0ZM30 2H2V6H30V2ZM2 24H30V8H2V24ZM17.0222 12.2667V10.5333H26.3111V12.2667H17.0222ZM17.0222 16.2667V14.5333H26.3111V16.2667H17.0222ZM17.0222 20.2667V18.5333H22.0444V20.2667H17.0222Z" fill="#464641"/>
<path d="M12.3102 17.2885C12.799 17.5552 13.2435 17.8663 13.6435 18.2219C14.0435 18.5774 14.399 18.9774 14.6657 19.4663C14.9324 19.9108 15.1546 20.3997 15.3324 20.933C15.4657 21.4663 15.5546 21.9997 15.5546 22.533H14.0879C14.0879 21.9552 13.9546 21.3774 13.7324 20.8441C13.5102 20.3108 13.199 19.8663 12.799 19.4663C12.399 19.0663 11.9546 18.7552 11.4213 18.533C10.8879 18.3108 10.3102 18.1774 9.73238 18.1774C9.1546 18.1774 8.57682 18.3108 8.04349 18.533C7.51016 18.7552 7.06571 19.0663 6.66571 19.4663C6.26571 19.8663 5.9546 20.3108 5.73238 20.8441C5.51016 21.3774 5.37682 21.9552 5.37682 22.533H3.91016C3.91016 21.9997 3.99905 21.4663 4.13238 20.933C4.26571 20.3997 4.48793 19.9108 4.79905 19.4663C5.06571 19.0219 5.42127 18.6219 5.82127 18.2219C6.22127 17.8663 6.66571 17.5552 7.1546 17.2885C6.62127 16.8885 6.17682 16.3552 5.86571 15.733C5.5546 15.1108 5.37682 14.4441 5.37682 13.7774C5.37682 13.1997 5.51016 12.6219 5.73238 12.0885C5.9546 11.5552 6.26571 11.1108 6.66571 10.7108C7.06571 10.3108 7.51016 9.99965 8.04349 9.77743C8.57682 9.55521 9.1546 9.42188 9.73238 9.42188C10.3102 9.42188 10.8879 9.55521 11.4213 9.77743C11.9546 9.99965 12.399 10.3108 12.799 10.7108C13.199 11.1108 13.5102 11.5552 13.7324 12.0885C13.9546 12.6219 14.0879 13.1997 14.0879 13.7774C14.0879 14.4441 13.9102 15.1108 13.599 15.733C13.2879 16.3552 12.8435 16.8885 12.3102 17.2885ZM6.79905 13.7774C6.79905 14.1774 6.88793 14.533 7.02127 14.8885C7.1546 15.2441 7.37682 15.5552 7.64349 15.8219C7.91016 16.0885 8.22127 16.3108 8.57682 16.4441C8.93238 16.5774 9.28793 16.6663 9.68793 16.6663C10.0879 16.6663 10.4435 16.5774 10.799 16.4441C11.1546 16.3108 11.4657 16.0885 11.7324 15.8219C11.999 15.5552 12.2213 15.2441 12.3546 14.8885C12.4879 14.533 12.5768 14.1774 12.5768 13.7774C12.5768 13.3774 12.4879 13.0219 12.3546 12.6663C12.2213 12.3108 11.999 11.9997 11.7324 11.733C11.4657 11.4663 11.1546 11.2441 10.799 11.1108C10.4435 10.9774 10.0879 10.8885 9.68793 10.8885C9.28793 10.8885 8.93238 10.9774 8.57682 11.1108C8.22127 11.2441 7.91016 11.4663 7.64349 11.733C7.37682 11.9997 7.1546 12.3108 7.02127 12.6663C6.88793 13.0219 6.79905 13.4219 6.79905 13.7774Z" fill="#464641"/>
</g>
</svg>
