<svg width="25" height="33" viewBox="0 0 25 33" fill="none" xmlns="http://www.w3.org/2000/svg">
<g opacity="0.66">
<g opacity="0.9">
<path fill-rule="evenodd" clip-rule="evenodd" d="M10.6845 0.313625C10.1963 0.522709 9.77239 0.812209 9.40474 1.1781C9.03709 1.544 8.75181 1.97021 8.54287 2.45874C8.33193 2.94526 8.22746 3.46596 8.22746 4.02084H0.191406V32.1667H24.2996V4.02084H16.2635C16.2635 3.46596 16.159 2.94526 15.9501 2.45874C15.7412 1.97021 15.4519 1.544 15.0862 1.1781C14.7186 0.812209 14.2947 0.522709 13.8065 0.313625C13.3203 0.106552 12.8 0 12.2455 0C11.689 0 11.1707 0.106552 10.6845 0.313625ZM6.21844 6.03125H10.2365V4.02084C10.2365 3.73938 10.2887 3.47601 10.3932 3.23476C10.4976 2.99552 10.6423 2.78443 10.8251 2.59947C11.0079 2.41652 11.2209 2.27378 11.46 2.16924C11.703 2.06269 11.9622 2.01042 12.2455 2.01042C12.5267 2.01042 12.7899 2.06269 13.029 2.16924C13.2721 2.27378 13.483 2.41652 13.6659 2.59947C13.8487 2.78443 13.9933 2.99552 14.0978 3.23476C14.2023 3.47601 14.2545 3.73938 14.2545 4.02084V6.03125H18.2725V8.04167H6.21844V6.03125ZM20.2815 10.0521V6.03125H22.2905V30.1563H2.20042V6.03125H4.20943V10.0521H20.2815Z" fill="#464641"/>
<path fill-rule="evenodd" clip-rule="evenodd" d="M10.9427 22.8215L7.22199 26.5448L4.50781 23.8267L5.92015 22.4134L7.22199 23.7162L9.53034 21.4082L10.9427 22.8215Z" fill="#33332D"/>
<path fill-rule="evenodd" clip-rule="evenodd" d="M10.9427 14.7805L7.22199 18.5038L4.50781 15.7857L5.92015 14.3724L7.22199 15.6751L9.53034 13.3672L10.9427 14.7805Z" fill="#33332D"/>
<path fill-rule="evenodd" clip-rule="evenodd" d="M12.2461 26.1354H20.2842V24.125H12.2461V26.1354Z" fill="#33332D"/>
<path fill-rule="evenodd" clip-rule="evenodd" d="M12.2461 18.0944H20.2842V16.084H12.2461V18.0944Z" fill="#33332D"/>
</g>
</g>
</svg>
